<?xml version="1.0" encoding="utf-8"?>
<svg width="22" height="22" viewBox="0 0 22 22" xmlns="http://www.w3.org/2000/svg">
  <defs>
    <path id="a" d="M11 9.586L20.293.293a1 1 0 0 1 1.414 1.414L12.414 11l9.293 9.293a1 1 0 0 1-1.414 1.414L11 12.414l-9.293 9.293a1 1 0 1 1-1.414-1.414L9.586 11 .293 1.707A1 1 0 1 1 1.707.293L11 9.586z"/>
  </defs>
  <g fill="none" fill-rule="evenodd">
    <path d="M 11.011 9.724 L 19.396 1.339 C 20.334 1.247 20.889 2.391 20.672 2.615 L 12.287 11 L 20.672 19.385 C 20.724 20.329 19.62 20.877 19.396 20.661 L 11.011 12.276 L 2.626 20.661 C 1.835 20.911 1.072 19.616 1.35 19.385 L 9.735 11 L 1.35 2.615 C 1.165 1.93 2.394 1.099 2.626 1.339 L 11.011 9.724 Z" fill-rule="nonzero" style="fill: rgb(255, 255, 255);"/>
  </g>
</svg>