<svg xmlns="http://www.w3.org/2000/svg" width="36" height="24" viewBox="0 0 36 24"><defs><style>.a{fill:#f0f0f0;}.b{fill:#d80027;}.c{fill:#0052b4;}</style></defs><g transform="translate(0 -85.33)"><rect class="a" width="36" height="24" transform="translate(0 85.33)"/><path class="b" d="M20.25,85.33h-4.5v9.75H0v4.5H15.75v9.75h4.5V99.58H36v-4.5H20.25Z" transform="translate(0 0)"/><g transform="translate(22.494 101.827)"><path class="c" d="M393.785,315.358l7.969,4.427v-4.427Z" transform="translate(-388.248 -315.358)"/><path class="c" d="M311.652,315.358l13.506,7.5v-2.122l-9.687-5.381Z" transform="translate(-311.652 -315.358)"/><path class="c" d="M321.56,350.5,311.652,345V350.5Z" transform="translate(-311.652 -343)"/></g><path class="a" d="M311.652,315.358l13.506,7.5v-2.122l-9.687-5.381Z" transform="translate(-289.158 -213.531)"/><path class="b" d="M311.652,315.358l13.506,7.5v-2.122l-9.687-5.381Z" transform="translate(-289.158 -213.531)"/><g transform="translate(0 101.827)"><path class="c" d="M6.09,315.356,0,318.739v-3.383Z" transform="translate(0 -315.356)"/><path class="c" d="M37.278,329.51v6.549H25.491Z" transform="translate(-23.773 -328.556)"/></g><path class="b" d="M9.687,315.358,0,320.739v2.122H0l13.506-7.5Z" transform="translate(0 -213.531)"/><g transform="translate(0 85.33)"><path class="c" d="M7.969,135.385,0,130.958v4.427Z" transform="translate(0 -127.882)"/><path class="c" d="M13.506,92.833,0,85.33v2.122l9.687,5.381Z" transform="translate(0 -85.33)"/><path class="c" d="M53.366,85.33l9.908,5.505V85.33Z" transform="translate(-49.769 -85.33)"/></g><path class="a" d="M13.506,92.833,0,85.33v2.122l9.687,5.381Z"/><path class="b" d="M13.506,92.833,0,85.33v2.122l9.687,5.381Z"/><g transform="translate(22.494 85.33)"><path class="c" d="M421.659,149.829l6.09-3.383v3.383Z" transform="translate(-414.243 -142.326)"/><path class="c" d="M311.652,91.88V85.331h11.787Z" transform="translate(-311.652 -85.331)"/></g><path class="b" d="M315.471,92.833l9.687-5.381V85.33h0l-13.506,7.5Z" transform="translate(-289.158)"/></g></svg>