<?xml version="1.0" encoding="utf-8"?>
<svg width="48" height="48" viewBox="0 0 48 48" xmlns="http://www.w3.org/2000/svg">
  <defs>
    <path id="a" d="M23.077 0c.51 0 .923.448.923 1s-.413 1-.923 1H.923C.413 2 0 1.552 0 1s.413-1 .923-1h22.154zm0 9c.51 0 .923.448.923 1s-.413 1-.923 1H.923C.413 11 0 10.552 0 10s.413-1 .923-1h22.154zm0 9c.51 0 .923.448.923 1s-.413 1-.923 1H.923C.413 20 0 19.552 0 19s.413-1 .923-1h22.154z"/>
  </defs>
  <g fill="none" fill-rule="evenodd" transform="translate(12 14)">
    <path d="M 32.516 -8.521 C 33.46 -8.521 33.46 -4.817 32.516 -4.817 L -8.516 -4.817 C -9.461 -4.817 -9.461 -8.521 -8.516 -8.521 L 32.516 -8.521 Z M 32.516 8.148 C 33.46 8.148 33.46 11.853 32.516 11.853 L -8.516 11.853 C -9.461 11.853 -9.461 8.148 -8.516 8.148 L 32.516 8.148 Z M 32.516 24.818 C 33.46 24.818 33.46 28.521 32.516 28.521 L -8.516 28.521 C -9.461 28.521 -9.461 24.818 -8.516 24.818 L 32.516 24.818 Z" fill-rule="nonzero" style="fill: rgb(255, 255, 255);"/>
  </g>
</svg>